<svg width="90" height="30" viewBox="0 0 176 93" fill="none" xmlns="http://www.w3.org/2000/svg">
<path d="M76.0222 52.9216H70.84V14.1185H76.0222V52.9216ZM76.2178 0H70.5956V9.1998H76.2178V0ZM22.44 1.73066H21.5111L13.4933 33.5201L5.47556 1.73066H0V52.9216H5.18222V22.1342L13.2 52.9216H13.8356L21.8044 22.1342V52.9216H26.9867V1.73066H22.44ZM62.1378 15.1205C61.2578 15.9403 60.4267 17.3976 59.7911 18.764V14.1185H54.6089V52.9216H59.7911V36.2527C59.7911 30.5142 60.5244 28.0548 62.04 25.6866C63.5067 23.2272 66.9289 23.5005 66.9289 23.5005V13.7542C66.9289 13.7542 64.0444 13.3898 62.1378 15.1205ZM103.596 15.1205C102.716 15.9403 101.884 17.3976 101.249 18.764V14.1185H96.0667V52.9216H101.249V36.2527C101.249 30.5142 101.982 28.0548 103.498 25.6866C104.964 23.2272 108.387 23.5005 108.387 23.5005V13.7542C108.387 13.7542 105.502 13.3898 103.596 15.1205ZM87.0711 22.4074H92.4978V14.0274H87.0711V1.36631H81.8889V41.5357C81.8889 53.6503 87.12 52.9216 88.7333 52.9216C90.3467 52.9216 91.52 52.5573 91.52 52.5573V43.9951C91.52 43.9951 89.32 44.6327 88.1956 43.9951C87.2178 43.4486 87.12 41.4447 87.12 40.9892V22.4074H87.0711ZM158.4 22.4074H163.827V14.0274H158.4V1.36631H153.218V41.5357C153.218 53.6503 158.449 52.9216 160.062 52.9216C161.676 52.9216 162.849 52.5573 162.849 52.5573V43.9951C162.849 43.9951 160.649 44.6327 159.524 43.9951C158.547 43.4486 158.449 41.4447 158.449 40.9892V22.4074H158.4ZM42.0444 45.5436H41.6044C38.7689 45.5436 36.4711 41.4447 36.2756 36.2527H51.2356L51.2844 34.1577C51.3333 31.6983 51.2356 29.239 50.8933 26.8707C49.6711 18.5818 46.2 13.4809 41.5556 13.2987H41.2133C35.4444 13.2987 31.24 21.5877 30.9956 32.3359V34.4309C30.9956 45.1792 35.64 53.8325 41.4089 53.8325H41.8978C45.2222 53.8325 48.4 50.8266 50.3556 46.1812L47.2267 40.9892C45.6622 43.7218 44 45.5436 42.0444 45.5436ZM40.8711 21.4055H41.6044C43.9511 21.4055 45.9556 24.8668 46.1022 28.7835H36.2756C36.6178 24.5935 38.5733 21.4055 40.8711 21.4055ZM125.253 14.1185V34.7953C125.156 41.3536 123.151 44.8149 120.756 44.7238C118.556 44.5416 116.893 42.0823 116.893 35.7062V14.1185H111.711V39.4407C111.711 47.1832 115.084 53.3771 119.191 53.3771H120.364C122.124 53.3771 123.884 52.1019 125.253 50.0069V52.8306H130.436V14.1185H125.253ZM147.644 32.7914C146.911 31.8805 146.911 31.5162 143.733 29.6033C143.342 29.3301 141.876 28.4192 141.387 28.1459C140.409 27.5083 139.333 26.5064 139.284 24.8668C139.138 22.2253 140.507 21.4055 141.778 21.3144C143.391 21.3144 146.031 22.954 147.644 25.1401L149.796 18.0353C147.644 15.1205 144.467 13.2987 142.218 13.2987H142.022C138.111 13.2987 134.542 17.0333 134.396 25.4133V26.3242C134.542 31.5162 136.596 34.4309 138.942 35.9794C141.289 37.5279 140.116 36.7081 141.778 37.7101C142.12 37.8923 142.462 38.1655 142.853 38.3477C143.929 38.9853 145.249 39.9873 145.249 41.809C145.249 44.6327 143.978 45.5436 142.609 45.6347H142.316C140.36 45.8168 137.476 43.5397 135.716 40.716L133.32 47.5475C135.569 51.191 139.236 53.6503 141.729 53.5592H142.756C147.204 53.3771 150.04 48.3673 150.04 41.6268V40.4427C150.04 36.7081 148.818 34.1577 147.644 32.7914ZM82.9156 69.5906H85.0667V92.7267H82.9156V69.5906ZM73.9689 69.5906H68.9822V92.7267H73.9689C77.3911 92.7267 80.1778 87.5348 80.1778 81.1587C80.1778 74.7826 77.3911 69.5906 73.9689 69.5906ZM77.88 81.3408C77.88 85.5308 76.0222 88.9922 73.7733 88.9922H71.1333V73.2341H73.7733C76.0222 73.2341 77.88 76.6954 77.88 80.8854V81.3408ZM97.5333 69.5906H87.5111V73.2341H91.4222V92.6357H93.6222V73.2341H97.5333V69.5906ZM59.3022 88.9922V82.7982H65.5111V79.1547H59.3022V73.2341H66.2933V69.5906H57.1511V92.6357H66.3911V88.9922H59.3022ZM51.48 83.8913C53.3867 82.6161 54.4133 80.521 54.4133 76.9687C54.6089 72.7786 52.6044 69.4995 50.4044 69.4995H44.3422V92.6357H46.4933V84.5289H49.1822L52.2622 92.6357H54.8533L51.48 83.8913ZM46.4933 80.8854V73.2341H50.16C51.6267 73.6895 52.2133 74.9647 52.2133 77.0597C52.2133 79.1547 51.2844 80.8854 50.16 80.8854H46.4933ZM37.2044 89.2654C34.9067 89.4476 33.0978 85.5309 33.0978 81.6141V80.6121C33.0978 76.4221 34.9556 72.9608 37.2044 72.9608C38.4267 72.9608 39.6978 74.145 40.5778 75.8756L41.9956 72.8697C40.92 70.6836 39.4044 69.4084 37.5956 69.2262H37.0578C33.5867 69.2262 30.8 74.4182 30.8 80.8854V81.4319C30.8 87.808 33.5867 93 37.0089 93H37.3511C39.2578 93 40.9689 91.4515 42.0933 88.9011L40.7244 86.2595C39.7467 88.0813 38.4756 89.2654 37.2044 89.2654ZM132.636 69.5906H134.787V92.7267H132.636V69.5906ZM113.373 69.5906V82.8893C113.324 86.8061 112.298 89.1743 110.244 89.2654C108.191 89.2654 107.164 86.8061 107.116 82.8893V69.5906H104.964V83.5269C105.013 89.1743 106.969 93 110.049 93H110.44C113.569 93 115.524 89.1743 115.524 83.5269V69.5906H113.373ZM163.924 69.5906H161.724V85.4398L155.076 69.5906H153.071V92.6357H155.271V76.24L162.116 92.6357H163.924V69.5906ZM129.311 69.5906H127.16V85.4398L120.511 69.5906H118.507V92.6357H120.658V76.24L127.551 92.6357H129.311V69.5906ZM144.173 69.1352H143.782C140.311 69.1352 137.524 74.4182 137.524 80.7943V81.1587C137.524 87.6259 140.36 92.8178 143.782 92.8178H144.173C147.644 92.8178 150.431 87.5348 150.431 81.1587V80.7943C150.48 74.4182 147.644 69.1352 144.173 69.1352ZM148.133 81.523C148.133 85.8041 146.276 89.2654 143.978 89.2654C141.68 89.2654 139.822 85.8041 139.822 81.523V80.6121C139.822 76.331 141.68 72.8697 143.978 72.8697C146.276 72.8697 148.133 76.331 148.133 80.6121V81.523ZM175.169 84.1645L173.8 88.0813L172.431 84.1645H171.6V92.6357H172.382V86.715L173.8 90.5406L175.218 86.715V92.6357H176V84.1645H175.169ZM167.689 90.3585L167.2 91.3604C167.2 91.3604 167.933 92.7267 169.107 92.7267C170.28 92.7267 170.72 91.5426 170.72 90.1763C170.72 88.81 170.329 88.1724 169.204 87.7169C168.08 87.2615 168.178 86.715 168.178 86.4417C168.178 86.1685 168.276 85.4398 168.911 85.4398C169.547 85.4398 170.133 86.2595 170.133 86.2595L170.573 85.1665C170.573 85.1665 169.987 84.0735 168.96 84.0735C167.933 84.0735 167.396 85.3487 167.396 86.5328C167.396 87.7169 167.787 88.4456 168.471 88.81C169.156 89.1743 169.938 89.3565 169.889 90.2674C169.84 91.1783 169.498 91.3604 169.058 91.3604C168.618 91.4515 168.031 90.9961 167.689 90.3585Z" fill="white"/>
</svg>